<?xml version="1.0" encoding="UTF-8"?>
<!DOCTYPE svg PUBLIC "-//W3C//DTD SVG 1.1//EN" "http://www.w3.org/Graphics/SVG/1.1/DTD/svg11.dtd">
<!-- Creator: CorelDRAW 2021 (64-Bit) -->
<svg xmlns="http://www.w3.org/2000/svg" xml:space="preserve" width="2.08477in" height="2.12365in" version="1.1" style="shape-rendering:geometricPrecision; text-rendering:geometricPrecision; image-rendering:optimizeQuality; fill-rule:evenodd; clip-rule:evenodd"
viewBox="0 0 370.15 377.06"
 xmlns:xlink="http://www.w3.org/1999/xlink"
 xmlns:xodm="http://www.corel.com/coreldraw/odm/2003">
 <defs>
  <style type="text/css">
   <![CDATA[
    .fil0 {fill:#112640;fill-rule:nonzero}
   ]]>
  </style>
 </defs>
 <g id="Layer_x0020_1">
  <metadata id="CorelCorpID_0Corel-Layer"/>
  <path class="fil0" d="M126.25 128.83c3.17,-0.23 6.22,-0.46 9.28,-0.46l0.34 0c59.62,0 108.38,49.46 108.72,110.19 0,3.22 -0.22,6.55 -0.45,9.78l-9.28 0c-59.84,0 -108.72,-49.46 -109.06,-110.19 0,-3.11 0.23,-6.21 0.45,-9.32zm9.28 -27.72l-0.34 0 -3.62 0c15.16,-43.83 56.56,-73.96 102.61,-73.96 59.84,0 108.72,49.46 109.06,110.2l0 111 -72.74 0c0.22,-3.34 0.45,-6.67 0.45,-9.78 0,-75.8 -60.75,-137.46 -135.41,-137.46zm99.32 174.38l3.28 0c-15.5,44.4 -56,73.85 -102.72,73.85l-108.72 0 0 -110.54c0,-46.93 29.64,-88.92 72.74,-104.33l0 3.68c0.34,75.8 61.09,137.34 135.41,137.34zm-0.34 -275.49c-30.77,0 -60.98,10.81 -84.85,30.37 -23.19,18.98 -39.71,45.44 -46.61,74.88 -60.86,15.18 -103.06,69.94 -103.06,134.01l0 137.8 135.53 0c61.43,0 114.6,-41.41 130.55,-101.11l104.08 -0.34 0 -138.26c-0.56,-75.69 -61.31,-137.34 -135.64,-137.34z"/>
 </g>
</svg>
